<?xml version="1.0" encoding="UTF-8" standalone="no"?>
<!DOCTYPE svg PUBLIC "-//W3C//DTD SVG 1.1//EN" "http://www.w3.org/Graphics/SVG/1.1/DTD/svg11.dtd">
<svg width="100%" height="100%" viewBox="0 0 440 440" version="1.1" xmlns="http://www.w3.org/2000/svg" xmlns:xlink="http://www.w3.org/1999/xlink" xml:space="preserve" xmlns:serif="http://www.serif.com/" style="fill-rule:evenodd;clip-rule:evenodd;stroke-linejoin:round;stroke-miterlimit:2;">
    <g id="Artboard2" transform="matrix(0.702826,0,0,1.06733,62.9263,128.165)">
        <rect x="-89.533" y="-120.08" width="624.905" height="411.494" style="fill:none;"/>
        <g transform="matrix(7.15538,0,0,4.71175,-135.207,-159.748)">
            <path d="M89.9,40.7L89.9,21.7C91.2,21 92.1,19.6 92.1,18.1C92.1,15.8 90.2,13.9 87.9,13.9C85.6,13.9 83.7,15.8 83.7,18.1C83.7,19.7 84.6,21 85.9,21.7L85.9,38.4C85.5,38.3 85.1,38.2 84.7,38.1C84.3,33.8 80.7,30.5 76.4,30.5L23.7,30.5C19.3,30.5 15.8,33.8 15.4,38.1C15,38.2 14.6,38.3 14.2,38.4L14.2,21.7C15.5,21 16.4,19.6 16.4,18.1C16.4,15.8 14.5,13.9 12.2,13.9C9.9,13.9 8,15.8 8,18.1C8,19.7 8.9,21 10.2,21.7L10.2,40.8C8.2,42.6 7,45.2 7,48.1L7,65.9C7,70.9 10.6,75.1 15.3,76L15.3,77.7C15.3,82.3 19.1,86.1 23.7,86.1L76.4,86.1C81,86.1 84.8,82.3 84.8,77.7L84.8,76C89.5,75.1 93.1,70.9 93.1,65.9L93.1,48.1C93,45.2 91.8,42.6 89.9,40.7ZM80.7,77.7C80.7,80.1 78.7,82.1 76.3,82.1L23.7,82.1C21.3,82.1 19.3,80.1 19.3,77.7L19.3,38.8C19.3,36.4 21.3,34.4 23.7,34.4L76.4,34.4C78.8,34.4 80.8,36.4 80.8,38.8L80.8,77.7L80.7,77.7Z" style="fill:url(#_Radial1);fill-rule:nonzero;"/>
        </g>
        <g transform="matrix(0.365387,0,0,1.00761,-145.098,-347.481)">
            <path d="M255.228,451.862L320.565,488.074C323.845,489.91 326.027,491.55 327.109,492.994C328.192,494.437 328.733,496.274 328.733,498.504C328.733,501.325 327.716,503.768 325.682,505.835C323.649,507.901 321.287,508.934 318.597,508.934C316.826,508.934 314.169,507.95 310.627,505.982L213.309,451.862L310.627,397.742C314.169,395.84 316.793,394.888 318.499,394.888C321.254,394.888 323.649,395.905 325.682,397.939C327.716,399.972 328.733,402.4 328.733,405.22C328.733,407.451 328.192,409.288 327.109,410.731C326.027,412.174 323.845,413.814 320.565,415.651L255.228,451.862Z" style="fill:rgb(255,224,224);fill-rule:nonzero;"/>
        </g>
        <g transform="matrix(1.42283,0,0,0.936917,58.458,27.8395)">
            <g transform="matrix(5.02899,0,0,5.02899,-136.113,-197.449)">
                <path d="M35.8,41.7C30.3,41.7 25.9,46.2 25.9,51.6C25.9,57.1 30.4,61.5 35.8,61.5C41.3,61.5 45.7,57 45.7,51.6C45.7,46.1 41.2,41.7 35.8,41.7ZM31.6,56.4C30.7,56.4 30,55.7 30,54.8C30,53.9 30.7,53.2 31.6,53.2C32.5,53.2 33.2,53.9 33.2,54.8C33.2,55.7 32.4,56.4 31.6,56.4ZM37.7,54.6C35.2,54.6 33.1,52.5 33.1,50C33.1,47.5 35.2,45.4 37.7,45.4C40.2,45.4 42.3,47.5 42.3,50C42.3,52.5 40.3,54.6 37.7,54.6Z" style="fill:url(#_Radial2);fill-rule:nonzero;"/>
            </g>
            <g transform="matrix(5.02899,0,0,5.02899,-136.113,-197.449)">
                <path d="M64.3,41.7C58.8,41.7 54.4,46.2 54.4,51.6C54.4,57.1 58.9,61.5 64.3,61.5C69.8,61.5 74.2,57 74.2,51.6C74.2,46.1 69.7,41.7 64.3,41.7ZM60.1,56.4C59.2,56.4 58.5,55.7 58.5,54.8C58.5,53.9 59.2,53.2 60.1,53.2C61,53.2 61.7,53.9 61.7,54.8C61.7,55.7 60.9,56.4 60.1,56.4ZM66.2,54.6C63.7,54.6 61.6,52.5 61.6,50C61.6,47.5 63.7,45.4 66.2,45.4C68.7,45.4 70.8,47.5 70.8,50C70.8,52.5 68.8,54.6 66.2,54.6Z" style="fill:url(#_Radial3);fill-rule:nonzero;"/>
            </g>
        </g>
        <g transform="matrix(7.05676,-0.779578,1.18389,4.64681,-211.314,-113.73)">
            <path d="M50,73.1C44.9,73.1 40.7,68.9 40.7,63.8L43.7,63.8C43.7,67.3 46.5,70.1 50,70.1C53.5,70.1 56.3,67.3 56.3,63.8L59.3,63.8C59.3,68.9 55.1,73.1 50,73.1Z" style="fill:url(#_Radial4);fill-rule:nonzero;"/>
        </g>
        <g transform="matrix(-0.365387,0,0,1.00761,590.228,-347.481)">
            <path d="M255.228,451.862L320.565,488.074C323.845,489.91 326.027,491.55 327.109,492.994C328.192,494.437 328.733,496.274 328.733,498.504C328.733,501.325 327.716,503.768 325.682,505.835C323.649,507.901 321.287,508.934 318.597,508.934C316.826,508.934 314.169,507.95 310.627,505.982L213.309,451.862L310.627,397.742C314.169,395.84 316.793,394.888 318.499,394.888C321.254,394.888 323.649,395.905 325.682,397.939C327.716,399.972 328.733,402.4 328.733,405.22C328.733,407.451 328.192,409.288 327.109,410.731C326.027,412.174 323.845,413.814 320.565,415.651L255.228,451.862Z" style="fill:rgb(255,224,224);fill-rule:nonzero;"/>
        </g>
    </g>
    <defs>
        <radialGradient id="_Radial1" cx="0" cy="0" r="1" gradientUnits="userSpaceOnUse" gradientTransform="matrix(47.6463,-21.2856,21.2856,47.6463,21.8989,86.1)"><stop offset="0" style="stop-color:rgb(28,0,0);stop-opacity:1"/><stop offset="0.52" style="stop-color:rgb(56,0,0);stop-opacity:1"/><stop offset="1" style="stop-color:rgb(148,0,0);stop-opacity:1"/></radialGradient>
        <radialGradient id="_Radial2" cx="0" cy="0" r="1" gradientUnits="userSpaceOnUse" gradientTransform="matrix(47.6463,-21.2856,21.2856,47.6463,21.8989,86.1)"><stop offset="0" style="stop-color:rgb(28,0,0);stop-opacity:1"/><stop offset="0.52" style="stop-color:rgb(56,0,0);stop-opacity:1"/><stop offset="1" style="stop-color:rgb(148,0,0);stop-opacity:1"/></radialGradient>
        <radialGradient id="_Radial3" cx="0" cy="0" r="1" gradientUnits="userSpaceOnUse" gradientTransform="matrix(47.6463,-21.2856,21.2856,47.6463,21.8989,86.1)"><stop offset="0" style="stop-color:rgb(28,0,0);stop-opacity:1"/><stop offset="0.52" style="stop-color:rgb(56,0,0);stop-opacity:1"/><stop offset="1" style="stop-color:rgb(148,0,0);stop-opacity:1"/></radialGradient>
        <radialGradient id="_Radial4" cx="0" cy="0" r="1" gradientUnits="userSpaceOnUse" gradientTransform="matrix(47.6463,-21.2856,21.2856,47.6463,21.8989,86.1)"><stop offset="0" style="stop-color:rgb(28,0,0);stop-opacity:1"/><stop offset="0.52" style="stop-color:rgb(56,0,0);stop-opacity:1"/><stop offset="1" style="stop-color:rgb(148,0,0);stop-opacity:1"/></radialGradient>
    </defs>
</svg>
