<?xml version="1.0" encoding="UTF-8" standalone="no"?>
<!DOCTYPE svg PUBLIC "-//W3C//DTD SVG 1.1//EN" "http://www.w3.org/Graphics/SVG/1.1/DTD/svg11.dtd">
<svg width="100%" height="100%" viewBox="0 0 440 518" version="1.1" xmlns="http://www.w3.org/2000/svg" xmlns:xlink="http://www.w3.org/1999/xlink" xml:space="preserve" xmlns:serif="http://www.serif.com/" style="fill-rule:evenodd;clip-rule:evenodd;stroke-linejoin:round;stroke-miterlimit:2;">
    <g id="Artboard2" transform="matrix(0.702788,0,0,1.25677,62.9228,150.913)">
        <rect x="-89.533" y="-120.08" width="624.905" height="411.494" style="fill:none;"/>
        <g transform="matrix(5.74803,0,0,3.2143,-64.8277,-133.313)">
            <path d="M89.9,40.7L89.9,21.7C91.2,21 92.1,19.6 92.1,18.1C92.1,15.8 90.2,13.9 87.9,13.9C85.6,13.9 83.7,15.8 83.7,18.1C83.7,19.7 84.6,21 85.9,21.7L85.9,38.4C85.5,38.3 85.1,38.2 84.7,38.1C84.3,33.8 80.7,30.5 76.4,30.5L23.7,30.5C19.3,30.5 15.8,33.8 15.4,38.1C15,38.2 14.6,38.3 14.2,38.4L14.2,21.7C15.5,21 16.4,19.6 16.4,18.1C16.4,15.8 14.5,13.9 12.2,13.9C9.9,13.9 8,15.8 8,18.1C8,19.7 8.9,21 10.2,21.7L10.2,40.8C8.2,42.6 7,45.2 7,48.1L7,65.9C7,70.9 10.6,75.1 15.3,76L15.3,77.7C15.3,82.3 19.1,86.1 23.7,86.1L76.4,86.1C81,86.1 84.8,82.3 84.8,77.7L84.8,76C89.5,75.1 93.1,70.9 93.1,65.9L93.1,48.1C93,45.2 91.8,42.6 89.9,40.7ZM80.7,77.7C80.7,80.1 78.7,82.1 76.3,82.1L23.7,82.1C21.3,82.1 19.3,80.1 19.3,77.7L19.3,38.8C19.3,36.4 21.3,34.4 23.7,34.4L76.4,34.4C78.8,34.4 80.8,36.4 80.8,38.8L80.8,77.7L80.7,77.7Z" style="fill:url(#_Radial1);fill-rule:nonzero;"/>
        </g>
        <g transform="matrix(0.293521,0,0,0.687382,-72.7732,-261.382)">
            <path d="M255.228,451.862L320.565,488.074C323.845,489.91 326.027,491.55 327.109,492.994C328.192,494.437 328.733,496.274 328.733,498.504C328.733,501.325 327.716,503.768 325.682,505.835C323.649,507.901 321.287,508.934 318.597,508.934C316.826,508.934 314.169,507.95 310.627,505.982L213.309,451.862L310.627,397.742C314.169,395.84 316.793,394.888 318.499,394.888C321.254,394.888 323.649,395.905 325.682,397.939C327.716,399.972 328.733,402.4 328.733,405.22C328.733,407.451 328.192,409.288 327.109,410.731C326.027,412.174 323.845,413.814 320.565,415.651L255.228,451.862Z" style="fill:rgb(255,224,224);fill-rule:nonzero;"/>
        </g>
        <g transform="matrix(1.4229,0,0,0.79569,58.4489,-21.4147)">
            <g transform="matrix(4.03965,0,0,4.03965,-86.6373,-138.406)">
                <path d="M35.8,41.7C30.3,41.7 25.9,46.2 25.9,51.6C25.9,57.1 30.4,61.5 35.8,61.5C41.3,61.5 45.7,57 45.7,51.6C45.7,46.1 41.2,41.7 35.8,41.7ZM31.6,56.4C30.7,56.4 30,55.7 30,54.8C30,53.9 30.7,53.2 31.6,53.2C32.5,53.2 33.2,53.9 33.2,54.8C33.2,55.7 32.4,56.4 31.6,56.4ZM37.7,54.6C35.2,54.6 33.1,52.5 33.1,50C33.1,47.5 35.2,45.4 37.7,45.4C40.2,45.4 42.3,47.5 42.3,50C42.3,52.5 40.3,54.6 37.7,54.6Z" style="fill:url(#_Radial2);fill-rule:nonzero;"/>
            </g>
            <g transform="matrix(4.03965,0,0,4.03965,-86.6373,-138.406)">
                <path d="M64.3,41.7C58.8,41.7 54.4,46.2 54.4,51.6C54.4,57.1 58.9,61.5 64.3,61.5C69.8,61.5 74.2,57 74.2,51.6C74.2,46.1 69.7,41.7 64.3,41.7ZM60.1,56.4C59.2,56.4 58.5,55.7 58.5,54.8C58.5,53.9 59.2,53.2 60.1,53.2C61,53.2 61.7,53.9 61.7,54.8C61.7,55.7 60.9,56.4 60.1,56.4ZM66.2,54.6C63.7,54.6 61.6,52.5 61.6,50C61.6,47.5 63.7,45.4 66.2,45.4C68.7,45.4 70.8,47.5 70.8,50C70.8,52.5 68.8,54.6 66.2,54.6Z" style="fill:url(#_Radial3);fill-rule:nonzero;"/>
            </g>
        </g>
        <g transform="matrix(5.66881,-0.53182,0.951036,3.17,-125.965,-101.92)">
            <path d="M50,73.1C44.9,73.1 40.7,68.9 40.7,63.8L43.7,63.8C43.7,67.3 46.5,70.1 50,70.1C53.5,70.1 56.3,67.3 56.3,63.8L59.3,63.8C59.3,68.9 55.1,73.1 50,73.1Z" style="fill:url(#_Radial4);fill-rule:nonzero;"/>
        </g>
        <g transform="matrix(1.83386,0,0,1.0255,-607.549,103.14)">
            <g>
                <path d="M337.048,90.303L337.048,96.303C341.079,93.397 344.259,91.46 346.587,90.491C348.915,89.522 351.095,89.038 353.126,89.038C356.251,89.038 359.283,90.194 362.22,92.507C364.22,94.069 365.22,95.663 365.22,97.288C365.22,98.663 364.743,99.827 363.79,100.78C362.837,101.733 361.689,102.21 360.345,102.21C359.158,102.21 357.908,101.616 356.595,100.428C355.283,99.241 354.111,98.647 353.079,98.647C351.736,98.647 349.728,99.491 347.056,101.178C344.384,102.866 341.048,105.397 337.048,108.772L337.048,123.257L350.736,123.257C353.048,123.257 354.697,123.702 355.681,124.592C356.665,125.483 357.158,126.647 357.158,128.085C357.158,129.491 356.665,130.639 355.681,131.53C354.697,132.421 353.048,132.866 350.736,132.866L321.72,132.866C319.408,132.866 317.759,132.421 316.775,131.53C315.79,130.639 315.298,129.475 315.298,128.038C315.298,126.632 315.79,125.483 316.775,124.592C317.759,123.702 319.408,123.257 321.72,123.257L327.439,123.257L327.439,99.913L323.97,99.913C321.658,99.913 320.009,99.467 319.025,98.577C318.04,97.686 317.548,96.522 317.548,95.085C317.548,93.678 318.04,92.53 319.025,91.639C320.009,90.749 321.658,90.303 323.97,90.303L337.048,90.303Z" style="fill:rgb(148,0,0);fill-rule:nonzero;"/>
                <path d="M418.704,72.069L418.704,123.257L420.345,123.257C422.626,123.257 424.267,123.702 425.267,124.592C426.267,125.483 426.767,126.647 426.767,128.085C426.767,129.491 426.275,130.639 425.29,131.53C424.306,132.421 422.658,132.866 420.345,132.866L409.095,132.866L409.095,130.522C406.908,131.803 404.618,132.772 402.228,133.428C399.837,134.085 397.361,134.413 394.798,134.413C387.579,134.413 381.767,132.327 377.361,128.155C372.954,123.983 370.751,118.788 370.751,112.569C370.751,106.069 373.064,100.522 377.689,95.928C382.314,91.335 387.954,89.038 394.611,89.038C397.111,89.038 399.564,89.421 401.97,90.186C404.376,90.952 406.751,92.1 409.095,93.632L409.095,81.678L407.454,81.678C405.142,81.678 403.493,81.233 402.509,80.342C401.525,79.452 401.033,78.303 401.033,76.897C401.033,75.46 401.525,74.296 402.509,73.405C403.493,72.514 405.142,72.069 407.454,72.069L418.704,72.069ZM409.095,112.85C409.095,108.882 407.704,105.522 404.923,102.772C402.142,100.022 398.736,98.647 394.704,98.647C390.704,98.647 387.314,100.022 384.533,102.772C381.751,105.522 380.361,108.835 380.361,112.71C380.361,116.241 381.611,119.139 384.111,121.405C386.611,123.671 390.142,124.803 394.704,124.803C399.236,124.803 402.767,123.671 405.298,121.405C407.829,119.139 409.095,116.288 409.095,112.85Z" style="fill:rgb(148,0,0);fill-rule:nonzero;"/>
                <path d="M464.829,93.163L464.829,90.303L476.079,90.303C478.392,90.303 480.04,90.749 481.025,91.639C482.009,92.53 482.501,93.694 482.501,95.132C482.501,96.538 482.009,97.686 481.025,98.577C480.04,99.467 478.392,99.913 476.079,99.913L474.439,99.913L474.439,134.882C474.439,138.257 473.728,141.202 472.306,143.717C470.884,146.233 468.704,148.397 465.767,150.21C462.829,152.022 459.517,152.928 455.829,152.928L444.954,152.928C442.642,152.928 440.993,152.483 440.009,151.592C439.025,150.702 438.533,149.553 438.533,148.147C438.533,146.71 439.025,145.546 440.009,144.655C440.993,143.764 442.642,143.319 444.954,143.319L455.548,143.319C458.486,143.319 460.767,142.522 462.392,140.928C464.017,139.335 464.829,137.319 464.829,134.882L464.829,130.194C462.704,131.569 460.54,132.6 458.337,133.288C456.134,133.975 453.876,134.319 451.564,134.319C445.033,134.319 439.564,132.139 435.158,127.78C430.751,123.421 428.548,118.038 428.548,111.632C428.548,105.194 430.751,99.796 435.158,95.436C439.564,91.077 445.033,88.897 451.564,88.897C454.001,88.897 456.322,89.249 458.525,89.952C460.728,90.655 462.829,91.725 464.829,93.163ZM464.783,111.585C464.783,108.053 463.478,104.991 460.868,102.397C458.259,99.803 455.126,98.507 451.47,98.507C447.814,98.507 444.681,99.803 442.072,102.397C439.462,104.991 438.158,108.053 438.158,111.585C438.158,115.147 439.462,118.217 442.072,120.796C444.681,123.374 447.814,124.663 451.47,124.663C455.126,124.663 458.259,123.374 460.868,120.796C463.478,118.217 464.783,115.147 464.783,111.585Z" style="fill:rgb(148,0,0);fill-rule:nonzero;"/>
                <path d="M523.611,117.397L500.267,117.397L497.923,123.257L500.267,123.257C502.579,123.257 504.228,123.702 505.212,124.592C506.197,125.483 506.689,126.647 506.689,128.085C506.689,129.491 506.197,130.639 505.212,131.53C504.228,132.421 502.579,132.866 500.267,132.866L487.329,132.866C485.017,132.866 483.368,132.421 482.384,131.53C481.4,130.639 480.908,129.475 480.908,128.038C480.908,126.6 481.423,125.428 482.454,124.522C483.486,123.616 485.189,123.194 487.564,123.257L502.658,85.663L496.376,85.663C494.064,85.663 492.415,85.217 491.431,84.327C490.447,83.436 489.954,82.272 489.954,80.835C489.954,79.397 490.447,78.233 491.431,77.342C492.415,76.452 494.064,76.007 496.376,76.007L517.142,76.053L536.267,123.257C538.517,123.257 540.001,123.507 540.72,124.007C542.158,125.038 542.876,126.397 542.876,128.085C542.876,129.491 542.392,130.639 541.423,131.53C540.454,132.421 538.814,132.866 536.501,132.866L523.564,132.866C521.251,132.866 519.603,132.421 518.618,131.53C517.634,130.639 517.142,129.475 517.142,128.038C517.142,126.632 517.634,125.483 518.618,124.592C519.603,123.702 521.251,123.257 523.564,123.257L525.908,123.257L523.611,117.397ZM519.626,107.788L511.892,88.757L504.111,107.788L519.626,107.788Z" style="fill-rule:nonzero;"/>
                <path d="M574.283,85.663L574.283,123.257L583.986,123.257C586.298,123.257 587.947,123.702 588.931,124.592C589.915,125.483 590.408,126.647 590.408,128.085C590.408,129.491 589.915,130.639 588.931,131.53C587.947,132.421 586.298,132.866 583.986,132.866L554.97,132.866C552.658,132.866 551.009,132.421 550.025,131.53C549.04,130.639 548.548,129.475 548.548,128.038C548.548,126.632 549.04,125.483 550.025,124.592C551.009,123.702 552.658,123.257 554.97,123.257L564.673,123.257L564.673,85.663L554.97,85.663C552.658,85.663 551.009,85.217 550.025,84.327C549.04,83.436 548.548,82.272 548.548,80.835C548.548,79.397 549.04,78.233 550.025,77.342C551.009,76.452 552.658,76.007 554.97,76.007L583.986,76.053C586.298,76.053 587.947,76.491 588.931,77.366C589.915,78.241 590.408,79.397 590.408,80.835C590.408,82.272 589.915,83.436 588.931,84.327C587.947,85.217 586.298,85.663 583.986,85.663L574.283,85.663Z" style="fill-rule:nonzero;"/>
            </g>
        </g>
        <g transform="matrix(-0.293521,0,0,0.687382,517.926,-261.382)">
            <path d="M255.228,451.862L320.565,488.074C323.845,489.91 326.027,491.55 327.109,492.994C328.192,494.437 328.733,496.274 328.733,498.504C328.733,501.325 327.716,503.768 325.682,505.835C323.649,507.901 321.287,508.934 318.597,508.934C316.826,508.934 314.169,507.95 310.627,505.982L213.309,451.862L310.627,397.742C314.169,395.84 316.793,394.888 318.499,394.888C321.254,394.888 323.649,395.905 325.682,397.939C327.716,399.972 328.733,402.4 328.733,405.22C328.733,407.451 328.192,409.288 327.109,410.731C326.027,412.174 323.845,413.814 320.565,415.651L255.228,451.862Z" style="fill:rgb(255,224,224);fill-rule:nonzero;"/>
        </g>
    </g>
    <defs>
        <radialGradient id="_Radial1" cx="0" cy="0" r="1" gradientUnits="userSpaceOnUse" gradientTransform="matrix(47.6463,-21.2856,21.2856,47.6463,21.8989,86.1)"><stop offset="0" style="stop-color:rgb(28,0,0);stop-opacity:1"/><stop offset="0.52" style="stop-color:rgb(56,0,0);stop-opacity:1"/><stop offset="1" style="stop-color:rgb(148,0,0);stop-opacity:1"/></radialGradient>
        <radialGradient id="_Radial2" cx="0" cy="0" r="1" gradientUnits="userSpaceOnUse" gradientTransform="matrix(47.6463,-21.2856,21.2856,47.6463,21.8989,86.1)"><stop offset="0" style="stop-color:rgb(28,0,0);stop-opacity:1"/><stop offset="0.52" style="stop-color:rgb(56,0,0);stop-opacity:1"/><stop offset="1" style="stop-color:rgb(148,0,0);stop-opacity:1"/></radialGradient>
        <radialGradient id="_Radial3" cx="0" cy="0" r="1" gradientUnits="userSpaceOnUse" gradientTransform="matrix(47.6463,-21.2856,21.2856,47.6463,21.8989,86.1)"><stop offset="0" style="stop-color:rgb(28,0,0);stop-opacity:1"/><stop offset="0.52" style="stop-color:rgb(56,0,0);stop-opacity:1"/><stop offset="1" style="stop-color:rgb(148,0,0);stop-opacity:1"/></radialGradient>
        <radialGradient id="_Radial4" cx="0" cy="0" r="1" gradientUnits="userSpaceOnUse" gradientTransform="matrix(47.6463,-21.2856,21.2856,47.6463,21.8989,86.1)"><stop offset="0" style="stop-color:rgb(28,0,0);stop-opacity:1"/><stop offset="0.52" style="stop-color:rgb(56,0,0);stop-opacity:1"/><stop offset="1" style="stop-color:rgb(148,0,0);stop-opacity:1"/></radialGradient>
    </defs>
</svg>
