<?xml version="1.0" encoding="UTF-8" standalone="no"?>
<!DOCTYPE svg PUBLIC "-//W3C//DTD SVG 1.1//EN" "http://www.w3.org/Graphics/SVG/1.1/DTD/svg11.dtd">
<svg width="100%" height="100%" viewBox="0 0 1280 640" version="1.1" xmlns="http://www.w3.org/2000/svg" xmlns:xlink="http://www.w3.org/1999/xlink" xml:space="preserve" xmlns:serif="http://www.serif.com/" style="fill-rule:evenodd;clip-rule:evenodd;stroke-linejoin:round;stroke-miterlimit:2;">
    <g id="Artboard2" transform="matrix(2.04831,0,0,1.55531,183.392,186.762)">
        <rect x="-89.533" y="-120.08" width="624.905" height="411.494" style="fill:none;"/>
        <clipPath id="_clip1">
            <rect x="-89.533" y="-120.08" width="624.905" height="411.494"/>
        </clipPath>
        <g clip-path="url(#_clip1)">
            <g transform="matrix(0.911872,0,0,0.947794,-67.309,-98.5977)">
                <rect x="-24.372" y="-22.666" width="685.3" height="434.16" style="fill:url(#_Radial2);"/>
            </g>
            <g transform="matrix(1.97218,0,0,2.59733,-41.5642,-44.1997)">
                <path d="M89.9,40.7L89.9,21.7C91.2,21 92.1,19.6 92.1,18.1C92.1,15.8 90.2,13.9 87.9,13.9C85.6,13.9 83.7,15.8 83.7,18.1C83.7,19.7 84.6,21 85.9,21.7L85.9,38.4C85.5,38.3 85.1,38.2 84.7,38.1C84.3,33.8 80.7,30.5 76.4,30.5L23.7,30.5C19.3,30.5 15.8,33.8 15.4,38.1C15,38.2 14.6,38.3 14.2,38.4L14.2,21.7C15.5,21 16.4,19.6 16.4,18.1C16.4,15.8 14.5,13.9 12.2,13.9C9.9,13.9 8,15.8 8,18.1C8,19.7 8.9,21 10.2,21.7L10.2,40.8C8.2,42.6 7,45.2 7,48.1L7,65.9C7,70.9 10.6,75.1 15.3,76L15.3,77.7C15.3,82.3 19.1,86.1 23.7,86.1L76.4,86.1C81,86.1 84.8,82.3 84.8,77.7L84.8,76C89.5,75.1 93.1,70.9 93.1,65.9L93.1,48.1C93,45.2 91.8,42.6 89.9,40.7ZM80.7,77.7C80.7,80.1 78.7,82.1 76.3,82.1L23.7,82.1C21.3,82.1 19.3,80.1 19.3,77.7L19.3,38.8C19.3,36.4 21.3,34.4 23.7,34.4L76.4,34.4C78.8,34.4 80.8,36.4 80.8,38.8L80.8,77.7L80.7,77.7Z" style="fill:url(#_Radial3);fill-rule:nonzero;"/>
            </g>
            <g transform="matrix(0.100709,0,0,0.555441,-44.2903,-147.687)">
                <path d="M255.228,451.862L320.565,488.074C323.845,489.91 326.027,491.55 327.109,492.994C328.192,494.437 328.733,496.274 328.733,498.504C328.733,501.325 327.716,503.768 325.682,505.835C323.649,507.901 321.287,508.934 318.597,508.934C316.826,508.934 314.169,507.95 310.627,505.982L213.309,451.862L310.627,397.742C314.169,395.84 316.793,394.888 318.499,394.888C321.254,394.888 323.649,395.905 325.682,397.939C327.716,399.972 328.733,402.4 328.733,405.22C328.733,407.451 328.192,409.288 327.109,410.731C326.027,412.174 323.845,413.814 320.565,415.651L255.228,451.862Z" style="fill:rgb(255,224,224);fill-rule:nonzero;"/>
            </g>
            <g transform="matrix(0.488207,0,0,0.642959,-38.7596,-40.3533)">
                <g transform="matrix(4.03965,0,0,4.03965,-5.74467,-3.75871)">
                    <path d="M35.8,41.7C30.3,41.7 25.9,46.2 25.9,51.6C25.9,57.1 30.4,61.5 35.8,61.5C41.3,61.5 45.7,57 45.7,51.6C45.7,46.1 41.2,41.7 35.8,41.7ZM31.6,56.4C30.7,56.4 30,55.7 30,54.8C30,53.9 30.7,53.2 31.6,53.2C32.5,53.2 33.2,53.9 33.2,54.8C33.2,55.7 32.4,56.4 31.6,56.4ZM37.7,54.6C35.2,54.6 33.1,52.5 33.1,50C33.1,47.5 35.2,45.4 37.7,45.4C40.2,45.4 42.3,47.5 42.3,50C42.3,52.5 40.3,54.6 37.7,54.6Z" style="fill:url(#_Radial4);fill-rule:nonzero;"/>
                </g>
                <g transform="matrix(4.03965,0,0,4.03965,-5.74467,-3.75871)">
                    <path d="M64.3,41.7C58.8,41.7 54.4,46.2 54.4,51.6C54.4,57.1 58.9,61.5 64.3,61.5C69.8,61.5 74.2,57 74.2,51.6C74.2,46.1 69.7,41.7 64.3,41.7ZM60.1,56.4C59.2,56.4 58.5,55.7 58.5,54.8C58.5,53.9 59.2,53.2 60.1,53.2C61,53.2 61.7,53.9 61.7,54.8C61.7,55.7 60.9,56.4 60.1,56.4ZM66.2,54.6C63.7,54.6 61.6,52.5 61.6,50C61.6,47.5 63.7,45.4 66.2,45.4C68.7,45.4 70.8,47.5 70.8,50C70.8,52.5 68.8,54.6 66.2,54.6Z" style="fill:url(#_Radial5);fill-rule:nonzero;"/>
                </g>
            </g>
            <g transform="matrix(1.945,-0.429739,0.326306,2.56153,-62.5408,-18.8327)">
                <path d="M50,73.1C44.9,73.1 40.7,68.9 40.7,63.8L43.7,63.8C43.7,67.3 46.5,70.1 50,70.1C53.5,70.1 56.3,67.3 56.3,63.8L59.3,63.8C59.3,68.9 55.1,73.1 50,73.1Z" style="fill:url(#_Radial6);fill-rule:nonzero;"/>
            </g>
            <g transform="matrix(1,0,0,1,3.2685e-13,9.85103)">
                <g transform="matrix(1.02485,0,0,1.34971,-131.481,-106.799)">
                    <path d="M337.048,90.303L337.048,96.303C341.079,93.397 344.259,91.46 346.587,90.491C348.915,89.522 351.095,89.038 353.126,89.038C356.251,89.038 359.283,90.194 362.22,92.507C364.22,94.069 365.22,95.663 365.22,97.288C365.22,98.663 364.743,99.827 363.79,100.78C362.837,101.733 361.689,102.21 360.345,102.21C359.158,102.21 357.908,101.616 356.595,100.428C355.283,99.241 354.111,98.647 353.079,98.647C351.736,98.647 349.728,99.491 347.056,101.178C344.384,102.866 341.048,105.397 337.048,108.772L337.048,123.257L350.736,123.257C353.048,123.257 354.697,123.702 355.681,124.592C356.665,125.483 357.158,126.647 357.158,128.085C357.158,129.491 356.665,130.639 355.681,131.53C354.697,132.421 353.048,132.866 350.736,132.866L321.72,132.866C319.408,132.866 317.759,132.421 316.775,131.53C315.79,130.639 315.298,129.475 315.298,128.038C315.298,126.632 315.79,125.483 316.775,124.592C317.759,123.702 319.408,123.257 321.72,123.257L327.439,123.257L327.439,99.913L323.97,99.913C321.658,99.913 320.009,99.467 319.025,98.577C318.04,97.686 317.548,96.522 317.548,95.085C317.548,93.678 318.04,92.53 319.025,91.639C320.009,90.749 321.658,90.303 323.97,90.303L337.048,90.303Z" style="fill:rgb(148,0,0);fill-rule:nonzero;"/>
                    <path d="M418.704,72.069L418.704,123.257L420.345,123.257C422.626,123.257 424.267,123.702 425.267,124.592C426.267,125.483 426.767,126.647 426.767,128.085C426.767,129.491 426.275,130.639 425.29,131.53C424.306,132.421 422.658,132.866 420.345,132.866L409.095,132.866L409.095,130.522C406.908,131.803 404.618,132.772 402.228,133.428C399.837,134.085 397.361,134.413 394.798,134.413C387.579,134.413 381.767,132.327 377.361,128.155C372.954,123.983 370.751,118.788 370.751,112.569C370.751,106.069 373.064,100.522 377.689,95.928C382.314,91.335 387.954,89.038 394.611,89.038C397.111,89.038 399.564,89.421 401.97,90.186C404.376,90.952 406.751,92.1 409.095,93.632L409.095,81.678L407.454,81.678C405.142,81.678 403.493,81.233 402.509,80.342C401.525,79.452 401.033,78.303 401.033,76.897C401.033,75.46 401.525,74.296 402.509,73.405C403.493,72.514 405.142,72.069 407.454,72.069L418.704,72.069ZM409.095,112.85C409.095,108.882 407.704,105.522 404.923,102.772C402.142,100.022 398.736,98.647 394.704,98.647C390.704,98.647 387.314,100.022 384.533,102.772C381.751,105.522 380.361,108.835 380.361,112.71C380.361,116.241 381.611,119.139 384.111,121.405C386.611,123.671 390.142,124.803 394.704,124.803C399.236,124.803 402.767,123.671 405.298,121.405C407.829,119.139 409.095,116.288 409.095,112.85Z" style="fill:rgb(148,0,0);fill-rule:nonzero;"/>
                    <path d="M464.829,93.163L464.829,90.303L476.079,90.303C478.392,90.303 480.04,90.749 481.025,91.639C482.009,92.53 482.501,93.694 482.501,95.132C482.501,96.538 482.009,97.686 481.025,98.577C480.04,99.467 478.392,99.913 476.079,99.913L474.439,99.913L474.439,134.882C474.439,138.257 473.728,141.202 472.306,143.717C470.884,146.233 468.704,148.397 465.767,150.21C462.829,152.022 459.517,152.928 455.829,152.928L444.954,152.928C442.642,152.928 440.993,152.483 440.009,151.592C439.025,150.702 438.533,149.553 438.533,148.147C438.533,146.71 439.025,145.546 440.009,144.655C440.993,143.764 442.642,143.319 444.954,143.319L455.548,143.319C458.486,143.319 460.767,142.522 462.392,140.928C464.017,139.335 464.829,137.319 464.829,134.882L464.829,130.194C462.704,131.569 460.54,132.6 458.337,133.288C456.134,133.975 453.876,134.319 451.564,134.319C445.033,134.319 439.564,132.139 435.158,127.78C430.751,123.421 428.548,118.038 428.548,111.632C428.548,105.194 430.751,99.796 435.158,95.436C439.564,91.077 445.033,88.897 451.564,88.897C454.001,88.897 456.322,89.249 458.525,89.952C460.728,90.655 462.829,91.725 464.829,93.163ZM464.783,111.585C464.783,108.053 463.478,104.991 460.868,102.397C458.259,99.803 455.126,98.507 451.47,98.507C447.814,98.507 444.681,99.803 442.072,102.397C439.462,104.991 438.158,108.053 438.158,111.585C438.158,115.147 439.462,118.217 442.072,120.796C444.681,123.374 447.814,124.663 451.47,124.663C455.126,124.663 458.259,123.374 460.868,120.796C463.478,118.217 464.783,115.147 464.783,111.585Z" style="fill:rgb(148,0,0);fill-rule:nonzero;"/>
                    <path d="M523.611,117.397L500.267,117.397L497.923,123.257L500.267,123.257C502.579,123.257 504.228,123.702 505.212,124.592C506.197,125.483 506.689,126.647 506.689,128.085C506.689,129.491 506.197,130.639 505.212,131.53C504.228,132.421 502.579,132.866 500.267,132.866L487.329,132.866C485.017,132.866 483.368,132.421 482.384,131.53C481.4,130.639 480.908,129.475 480.908,128.038C480.908,126.6 481.423,125.428 482.454,124.522C483.486,123.616 485.189,123.194 487.564,123.257L502.658,85.663L496.376,85.663C494.064,85.663 492.415,85.217 491.431,84.327C490.447,83.436 489.954,82.272 489.954,80.835C489.954,79.397 490.447,78.233 491.431,77.342C492.415,76.452 494.064,76.007 496.376,76.007L517.142,76.053L536.267,123.257C538.517,123.257 540.001,123.507 540.72,124.007C542.158,125.038 542.876,126.397 542.876,128.085C542.876,129.491 542.392,130.639 541.423,131.53C540.454,132.421 538.814,132.866 536.501,132.866L523.564,132.866C521.251,132.866 519.603,132.421 518.618,131.53C517.634,130.639 517.142,129.475 517.142,128.038C517.142,126.632 517.634,125.483 518.618,124.592C519.603,123.702 521.251,123.257 523.564,123.257L525.908,123.257L523.611,117.397ZM519.626,107.788L511.892,88.757L504.111,107.788L519.626,107.788Z" style="fill-rule:nonzero;"/>
                    <path d="M574.283,85.663L574.283,123.257L583.986,123.257C586.298,123.257 587.947,123.702 588.931,124.592C589.915,125.483 590.408,126.647 590.408,128.085C590.408,129.491 589.915,130.639 588.931,131.53C587.947,132.421 586.298,132.866 583.986,132.866L554.97,132.866C552.658,132.866 551.009,132.421 550.025,131.53C549.04,130.639 548.548,129.475 548.548,128.038C548.548,126.632 549.04,125.483 550.025,124.592C551.009,123.702 552.658,123.257 554.97,123.257L564.673,123.257L564.673,85.663L554.97,85.663C552.658,85.663 551.009,85.217 550.025,84.327C549.04,83.436 548.548,82.272 548.548,80.835C548.548,79.397 549.04,78.233 550.025,77.342C551.009,76.452 552.658,76.007 554.97,76.007L583.986,76.053C586.298,76.053 587.947,76.491 588.931,77.366C589.915,78.241 590.408,79.397 590.408,80.835C590.408,82.272 589.915,83.436 588.931,84.327C587.947,85.217 586.298,85.663 583.986,85.663L574.283,85.663Z" style="fill-rule:nonzero;"/>
                </g>
                <g transform="matrix(1.01703,0,0,1.33941,-106.164,-21.0032)">
                    <path d="M297.462,125.49L297.462,131.364L298.473,131.364C298.834,131.364 299.092,131.434 299.246,131.573C299.399,131.712 299.476,131.894 299.476,132.119C299.476,132.339 299.399,132.518 299.246,132.657C299.092,132.796 298.834,132.866 298.473,132.866L294.957,132.866C294.596,132.866 294.338,132.796 294.185,132.657C294.031,132.518 293.954,132.336 293.954,132.111C293.954,131.892 294.031,131.712 294.185,131.573C294.338,131.434 294.596,131.364 294.957,131.364L295.961,131.364L295.961,125.49L294.335,125.49L294.335,126.911C294.335,127.273 294.265,127.53 294.126,127.684C293.987,127.838 293.805,127.915 293.58,127.915C293.361,127.915 293.181,127.838 293.042,127.684C292.903,127.53 292.833,127.273 292.833,126.911L292.833,123.982L300.612,123.989L300.612,126.911C300.612,127.273 300.542,127.53 300.403,127.684C300.264,127.838 300.082,127.915 299.857,127.915C299.637,127.915 299.458,127.838 299.319,127.684C299.18,127.53 299.11,127.273 299.11,126.911L299.11,125.49L297.462,125.49Z" style="fill:rgb(148,0,0);fill-rule:nonzero;"/>
                    <path d="M304.193,129.16L304.193,131.364L308.024,131.364L308.024,130.551C308.024,130.19 308.093,129.933 308.232,129.779C308.372,129.625 308.553,129.548 308.778,129.548C308.998,129.548 309.177,129.625 309.316,129.779C309.456,129.933 309.525,130.19 309.525,130.551L309.525,132.866L302.457,132.866C302.096,132.866 301.838,132.796 301.685,132.657C301.531,132.518 301.454,132.336 301.454,132.111C301.454,131.892 301.532,131.712 301.688,131.573C301.845,131.434 302.101,131.364 302.457,131.364L302.692,131.364L302.692,125.49L302.457,125.49C302.096,125.49 301.838,125.421 301.685,125.282C301.531,125.142 301.454,124.961 301.454,124.736C301.454,124.511 301.531,124.33 301.685,124.19C301.838,124.051 302.096,123.982 302.457,123.982L309.196,123.989L309.196,126.274C309.196,126.631 309.127,126.886 308.991,127.039C308.854,127.193 308.673,127.27 308.449,127.27C308.224,127.27 308.042,127.194 307.903,127.043C307.764,126.892 307.694,126.635 307.694,126.274L307.694,125.49L304.193,125.49L304.193,127.658L305.512,127.658C305.512,127.268 305.548,127.016 305.621,126.904C305.773,126.665 305.988,126.545 306.266,126.545C306.486,126.545 306.665,126.622 306.804,126.776C306.943,126.93 307.013,127.187 307.013,127.549L307.013,129.277C307.013,129.604 306.974,129.824 306.896,129.936C306.74,130.166 306.53,130.28 306.266,130.28C305.988,130.28 305.773,130.161 305.621,129.922C305.548,129.809 305.512,129.555 305.512,129.16L304.193,129.16Z" style="fill:rgb(148,0,0);fill-rule:nonzero;"/>
                    <path d="M315.487,125.49L315.487,131.364L317.003,131.364C317.365,131.364 317.622,131.434 317.776,131.573C317.93,131.712 318.007,131.894 318.007,132.119C318.007,132.339 317.93,132.518 317.776,132.657C317.622,132.796 317.365,132.866 317.003,132.866L312.47,132.866C312.108,132.866 311.851,132.796 311.697,132.657C311.543,132.518 311.466,132.336 311.466,132.111C311.466,131.892 311.543,131.712 311.697,131.573C311.851,131.434 312.108,131.364 312.47,131.364L313.986,131.364L313.986,125.49L312.47,125.49C312.108,125.49 311.851,125.421 311.697,125.282C311.543,125.142 311.466,124.961 311.466,124.736C311.466,124.511 311.543,124.33 311.697,124.19C311.851,124.051 312.108,123.982 312.47,123.982L317.003,123.989C317.365,123.989 317.622,124.057 317.776,124.194C317.93,124.331 318.007,124.511 318.007,124.736C318.007,124.961 317.93,125.142 317.776,125.282C317.622,125.421 317.365,125.49 317.003,125.49L315.487,125.49Z" style="fill:rgb(148,0,0);fill-rule:nonzero;"/>
                    <path d="M331.168,128.589L336.032,131.284C336.276,131.421 336.438,131.543 336.519,131.65C336.599,131.757 336.639,131.894 336.639,132.06C336.639,132.27 336.564,132.452 336.412,132.606C336.261,132.76 336.085,132.837 335.885,132.837C335.753,132.837 335.555,132.763 335.292,132.617L328.048,128.589L335.292,124.56C335.555,124.419 335.751,124.348 335.878,124.348C336.083,124.348 336.261,124.424 336.412,124.575C336.564,124.726 336.639,124.907 336.639,125.117C336.639,125.283 336.599,125.42 336.519,125.527C336.438,125.634 336.276,125.757 336.032,125.893L331.168,128.589Z" style="fill:rgb(148,0,0);fill-rule:nonzero;"/>
                    <path d="M341.429,126.215L341.429,127.153C342.059,126.699 342.556,126.396 342.92,126.245C343.284,126.093 343.624,126.018 343.942,126.018C344.43,126.018 344.904,126.198 345.363,126.56C345.675,126.804 345.831,127.053 345.831,127.307C345.831,127.522 345.757,127.704 345.608,127.852C345.459,128.001 345.28,128.076 345.07,128.076C344.884,128.076 344.689,127.983 344.484,127.798C344.279,127.612 344.095,127.519 343.934,127.519C343.724,127.519 343.411,127.651 342.993,127.915C342.576,128.178 342.054,128.574 341.429,129.101L341.429,131.364L343.568,131.364C343.929,131.364 344.187,131.434 344.341,131.573C344.495,131.712 344.572,131.894 344.572,132.119C344.572,132.339 344.495,132.518 344.341,132.657C344.187,132.796 343.929,132.866 343.568,132.866L339.034,132.866C338.673,132.866 338.416,132.796 338.262,132.657C338.108,132.518 338.031,132.336 338.031,132.111C338.031,131.892 338.108,131.712 338.262,131.573C338.416,131.434 338.673,131.364 339.034,131.364L339.928,131.364L339.928,127.717L339.386,127.717C339.025,127.717 338.767,127.647 338.613,127.508C338.46,127.369 338.383,127.187 338.383,126.963C338.383,126.743 338.46,126.563 338.613,126.424C338.767,126.285 339.025,126.215 339.386,126.215L341.429,126.215Z" style="fill:rgb(148,0,0);fill-rule:nonzero;"/>
                    <path d="M354.188,123.366L354.188,131.364L354.445,131.364C354.801,131.364 355.057,131.434 355.214,131.573C355.37,131.712 355.448,131.894 355.448,132.119C355.448,132.339 355.371,132.518 355.217,132.657C355.064,132.796 354.806,132.866 354.445,132.866L352.687,132.866L352.687,132.5C352.345,132.7 351.987,132.851 351.614,132.954C351.24,133.056 350.853,133.108 350.453,133.108C349.325,133.108 348.417,132.782 347.728,132.13C347.04,131.478 346.696,130.666 346.696,129.694C346.696,128.679 347.057,127.812 347.78,127.094C348.502,126.377 349.384,126.018 350.424,126.018C350.814,126.018 351.198,126.078 351.574,126.197C351.949,126.317 352.321,126.496 352.687,126.736L352.687,124.868L352.43,124.868C352.069,124.868 351.812,124.798 351.658,124.659C351.504,124.52 351.427,124.34 351.427,124.121C351.427,123.896 351.504,123.714 351.658,123.575C351.812,123.436 352.069,123.366 352.43,123.366L354.188,123.366ZM352.687,129.738C352.687,129.118 352.47,128.593 352.035,128.164C351.6,127.734 351.068,127.519 350.438,127.519C349.813,127.519 349.283,127.734 348.849,128.164C348.414,128.593 348.197,129.111 348.197,129.716C348.197,130.268 348.392,130.721 348.783,131.075C349.174,131.429 349.725,131.606 350.438,131.606C351.146,131.606 351.698,131.429 352.094,131.075C352.489,130.721 352.687,130.276 352.687,129.738Z" style="fill:rgb(148,0,0);fill-rule:nonzero;"/>
                    <path d="M361.395,126.662L361.395,126.215L363.153,126.215C363.514,126.215 363.772,126.285 363.926,126.424C364.08,126.563 364.157,126.745 364.157,126.97C364.157,127.19 364.08,127.369 363.926,127.508C363.772,127.647 363.514,127.717 363.153,127.717L362.897,127.717L362.897,133.181C362.897,133.708 362.786,134.168 362.564,134.561C362.341,134.955 362.001,135.293 361.542,135.576C361.083,135.859 360.565,136.001 359.989,136.001L358.29,136.001C357.928,136.001 357.671,135.931 357.517,135.792C357.363,135.653 357.286,135.473 357.286,135.254C357.286,135.029 357.363,134.847 357.517,134.708C357.671,134.569 357.928,134.499 358.29,134.499L359.945,134.499C360.404,134.499 360.761,134.375 361.014,134.126C361.268,133.877 361.395,133.562 361.395,133.181L361.395,132.448C361.063,132.663 360.725,132.824 360.381,132.932C360.037,133.039 359.684,133.093 359.323,133.093C358.302,133.093 357.448,132.752 356.759,132.071C356.071,131.39 355.726,130.549 355.726,129.548C355.726,128.542 356.071,127.699 356.759,127.017C357.448,126.336 358.302,125.996 359.323,125.996C359.703,125.996 360.066,126.051 360.41,126.161C360.754,126.27 361.083,126.438 361.395,126.662ZM361.388,129.541C361.388,128.989 361.184,128.51 360.776,128.105C360.369,127.7 359.879,127.497 359.308,127.497C358.737,127.497 358.247,127.7 357.839,128.105C357.432,128.51 357.228,128.989 357.228,129.541C357.228,130.097 357.432,130.577 357.839,130.98C358.247,131.383 358.737,131.584 359.308,131.584C359.879,131.584 360.369,131.383 360.776,130.98C361.184,130.577 361.388,130.097 361.388,129.541Z" style="fill:rgb(148,0,0);fill-rule:nonzero;"/>
                    <path d="M370.331,128.589L365.468,125.893C365.223,125.757 365.061,125.634 364.981,125.527C364.9,125.42 364.86,125.283 364.86,125.117C364.86,124.907 364.935,124.726 365.087,124.575C365.238,124.424 365.416,124.348 365.621,124.348C365.748,124.348 365.944,124.419 366.207,124.56L373.451,128.589L366.207,132.617C365.944,132.763 365.748,132.837 365.621,132.837C365.416,132.837 365.238,132.761 365.087,132.61C364.935,132.458 364.86,132.275 364.86,132.06C364.86,131.894 364.9,131.757 364.981,131.65C365.061,131.543 365.223,131.421 365.468,131.284L370.331,128.589Z" style="fill:rgb(148,0,0);fill-rule:nonzero;"/>
                    <path d="M389.088,126.486C389.269,126.316 389.454,126.23 389.645,126.23C389.86,126.23 390.037,126.307 390.176,126.461C390.315,126.615 390.385,126.87 390.385,127.226L390.385,128.193C390.385,128.554 390.315,128.811 390.176,128.962C390.037,129.113 389.855,129.189 389.63,129.189C389.425,129.189 389.252,129.131 389.11,129.013C389.008,128.925 388.927,128.746 388.868,128.475C388.81,128.204 388.668,128.003 388.444,127.871C388.048,127.636 387.543,127.519 386.928,127.519C386.22,127.519 385.652,127.727 385.225,128.142C384.797,128.557 384.584,129.082 384.584,129.716C384.584,130.302 384.789,130.765 385.199,131.104C385.609,131.444 386.29,131.613 387.242,131.613C387.867,131.613 388.378,131.55 388.773,131.423C389.008,131.345 389.23,131.212 389.44,131.024C389.65,130.836 389.84,130.742 390.011,130.742C390.216,130.742 390.393,130.818 390.542,130.969C390.691,131.12 390.765,131.299 390.765,131.504C390.765,131.836 390.538,132.151 390.084,132.448C389.41,132.893 388.424,133.115 387.125,133.115C385.958,133.115 385.05,132.873 384.401,132.39C383.522,131.74 383.082,130.852 383.082,129.724C383.082,128.654 383.439,127.769 384.152,127.069C384.865,126.368 385.795,126.018 386.942,126.018C387.357,126.018 387.743,126.057 388.099,126.135C388.456,126.213 388.785,126.33 389.088,126.486Z" style="fill:rgb(148,0,0);fill-rule:nonzero;"/>
                    <path d="M396.5,123.366L396.5,131.364L398.302,131.364C398.663,131.364 398.921,131.434 399.075,131.573C399.229,131.712 399.305,131.894 399.305,132.119C399.305,132.339 399.229,132.518 399.075,132.657C398.921,132.796 398.663,132.866 398.302,132.866L393.197,132.866C392.836,132.866 392.578,132.796 392.424,132.657C392.271,132.518 392.194,132.336 392.194,132.111C392.194,131.892 392.271,131.712 392.424,131.573C392.578,131.434 392.836,131.364 393.197,131.364L394.999,131.364L394.999,124.868L393.79,124.868C393.434,124.868 393.178,124.798 393.021,124.659C392.865,124.52 392.787,124.338 392.787,124.113C392.787,123.894 392.864,123.714 393.018,123.575C393.171,123.436 393.429,123.366 393.79,123.366L396.5,123.366Z" style="fill:rgb(148,0,0);fill-rule:nonzero;"/>
                    <path d="M406.102,132.866L406.102,132.514C405.726,132.715 405.311,132.865 404.857,132.965C404.403,133.065 403.991,133.115 403.619,133.115C402.814,133.115 402.159,132.901 401.657,132.474C401.154,132.047 400.902,131.574 400.902,131.057C400.902,130.427 401.223,129.842 401.865,129.303C402.507,128.763 403.395,128.493 404.528,128.493C404.982,128.493 405.507,128.542 406.102,128.64L406.102,128.281C406.102,128.056 406.006,127.873 405.813,127.732C405.62,127.59 405.253,127.519 404.711,127.519C404.266,127.519 403.69,127.607 402.982,127.783C402.719,127.846 402.513,127.878 402.367,127.878C402.167,127.878 401.997,127.806 401.858,127.662C401.719,127.518 401.649,127.334 401.649,127.109C401.649,126.982 401.674,126.872 401.722,126.779C401.771,126.687 401.84,126.612 401.928,126.556C402.015,126.5 402.199,126.433 402.477,126.355C402.848,126.252 403.226,126.17 403.612,126.109C403.998,126.048 404.347,126.018 404.659,126.018C405.592,126.018 406.316,126.219 406.831,126.622C407.346,127.025 407.604,127.575 407.604,128.274L407.604,131.364L407.86,131.364C408.221,131.364 408.479,131.434 408.633,131.573C408.787,131.712 408.864,131.894 408.864,132.119C408.864,132.339 408.787,132.518 408.633,132.657C408.479,132.796 408.221,132.866 407.86,132.866L406.102,132.866ZM406.102,130.178C405.502,130.061 404.948,130.002 404.44,130.002C403.829,130.002 403.304,130.151 402.865,130.449C402.592,130.639 402.455,130.832 402.455,131.028C402.455,131.169 402.521,131.284 402.653,131.372C402.897,131.533 403.231,131.613 403.656,131.613C404.017,131.613 404.426,131.543 404.883,131.401C405.339,131.259 405.746,131.067 406.102,130.822L406.102,130.178Z" style="fill:rgb(148,0,0);fill-rule:nonzero;"/>
                    <path d="M415.375,127.973C415.131,127.822 414.874,127.708 414.606,127.633C414.337,127.557 414.056,127.519 413.763,127.519C413.182,127.519 412.721,127.614 412.379,127.805C412.228,127.888 412.152,127.978 412.152,128.076C412.152,128.188 412.255,128.298 412.46,128.405C412.616,128.484 412.965,128.559 413.507,128.632C414.503,128.769 415.197,128.906 415.587,129.043C416.1,129.223 416.495,129.492 416.774,129.848C417.052,130.205 417.191,130.581 417.191,130.976C417.191,131.513 416.954,131.963 416.481,132.324C415.802,132.846 414.921,133.108 413.837,133.108C413.402,133.108 413.001,133.07 412.632,132.994C412.263,132.918 411.925,132.807 411.617,132.661C411.544,132.724 411.466,132.773 411.383,132.807C411.3,132.841 411.215,132.859 411.127,132.859C410.892,132.859 410.706,132.782 410.566,132.628C410.427,132.474 410.358,132.216 410.358,131.855L410.358,131.35C410.358,130.988 410.427,130.731 410.566,130.577C410.706,130.423 410.887,130.346 411.112,130.346C411.293,130.346 411.444,130.396 411.566,130.497C411.688,130.597 411.783,130.769 411.852,131.013C412.081,131.208 412.357,131.356 412.679,131.456C413.002,131.556 413.373,131.606 413.793,131.606C414.481,131.606 415.016,131.499 415.397,131.284C415.577,131.176 415.668,131.064 415.668,130.947C415.668,130.752 415.538,130.59 415.28,130.464C415.021,130.337 414.486,130.229 413.676,130.141C412.47,130.014 411.664,129.77 411.259,129.409C410.853,129.052 410.651,128.613 410.651,128.09C410.651,127.553 410.878,127.107 411.332,126.75C411.947,126.262 412.753,126.018 413.749,126.018C414.095,126.018 414.429,126.051 414.749,126.117C415.068,126.183 415.375,126.284 415.668,126.421C415.761,126.352 415.847,126.301 415.928,126.267C416.008,126.233 416.083,126.215 416.151,126.215C416.356,126.215 416.527,126.292 416.664,126.446C416.801,126.6 416.869,126.858 416.869,127.219L416.869,127.585C416.869,127.912 416.83,128.134 416.752,128.252C416.595,128.476 416.383,128.589 416.115,128.589C415.934,128.589 415.775,128.532 415.638,128.42C415.502,128.308 415.414,128.159 415.375,127.973Z" style="fill:rgb(148,0,0);fill-rule:nonzero;"/>
                    <path d="M424.376,127.973C424.132,127.822 423.876,127.708 423.607,127.633C423.339,127.557 423.058,127.519 422.765,127.519C422.184,127.519 421.722,127.614 421.381,127.805C421.229,127.888 421.154,127.978 421.154,128.076C421.154,128.188 421.256,128.298 421.461,128.405C421.617,128.484 421.967,128.559 422.509,128.632C423.505,128.769 424.198,128.906 424.589,129.043C425.101,129.223 425.497,129.492 425.775,129.848C426.053,130.205 426.193,130.581 426.193,130.976C426.193,131.513 425.956,131.963 425.482,132.324C424.803,132.846 423.922,133.108 422.838,133.108C422.404,133.108 422.002,133.07 421.633,132.994C421.265,132.918 420.927,132.807 420.619,132.661C420.546,132.724 420.468,132.773 420.385,132.807C420.302,132.841 420.216,132.859 420.128,132.859C419.894,132.859 419.707,132.782 419.568,132.628C419.429,132.474 419.359,132.216 419.359,131.855L419.359,131.35C419.359,130.988 419.429,130.731 419.568,130.577C419.707,130.423 419.889,130.346 420.114,130.346C420.294,130.346 420.446,130.396 420.568,130.497C420.69,130.597 420.785,130.769 420.853,131.013C421.083,131.208 421.359,131.356 421.681,131.456C422.003,131.556 422.374,131.606 422.794,131.606C423.483,131.606 424.017,131.499 424.398,131.284C424.579,131.176 424.669,131.064 424.669,130.947C424.669,130.752 424.54,130.59 424.281,130.464C424.022,130.337 423.488,130.229 422.677,130.141C421.471,130.014 420.665,129.77 420.26,129.409C419.855,129.052 419.652,128.613 419.652,128.09C419.652,127.553 419.879,127.107 420.333,126.75C420.949,126.262 421.754,126.018 422.75,126.018C423.097,126.018 423.43,126.051 423.75,126.117C424.07,126.183 424.376,126.284 424.669,126.421C424.762,126.352 424.849,126.301 424.929,126.267C425.01,126.233 425.084,126.215 425.153,126.215C425.358,126.215 425.529,126.292 425.665,126.446C425.802,126.6 425.87,126.858 425.87,127.219L425.87,127.585C425.87,127.912 425.831,128.134 425.753,128.252C425.597,128.476 425.385,128.589 425.116,128.589C424.935,128.589 424.777,128.532 424.64,128.42C424.503,128.308 424.415,128.159 424.376,127.973Z" style="fill:rgb(148,0,0);fill-rule:nonzero;"/>
                    <path d="M432.294,123.366L432.294,124.956L430.507,124.956L430.507,123.366L432.294,123.366ZM432.499,126.215L432.499,131.364L434.301,131.364C434.662,131.364 434.919,131.434 435.073,131.573C435.227,131.712 435.304,131.894 435.304,132.119C435.304,132.339 435.227,132.518 435.073,132.657C434.919,132.796 434.662,132.866 434.301,132.866L429.196,132.866C428.834,132.866 428.577,132.796 428.423,132.657C428.269,132.518 428.192,132.336 428.192,132.111C428.192,131.892 428.269,131.712 428.423,131.573C428.577,131.434 428.834,131.364 429.196,131.364L430.997,131.364L430.997,127.717L429.789,127.717C429.432,127.717 429.176,127.647 429.02,127.508C428.864,127.369 428.785,127.187 428.785,126.963C428.785,126.743 428.862,126.563 429.016,126.424C429.17,126.285 429.428,126.215 429.789,126.215L432.499,126.215Z" style="fill:rgb(148,0,0);fill-rule:nonzero;"/>
                    <path d="M439.142,127.717L439.142,131.364L439.655,131.364C440.011,131.364 440.266,131.434 440.42,131.573C440.574,131.712 440.651,131.894 440.651,132.119C440.651,132.339 440.575,132.518 440.424,132.657C440.272,132.796 440.016,132.866 439.655,132.866L436.981,132.866C436.62,132.866 436.362,132.796 436.209,132.657C436.055,132.518 435.978,132.336 435.978,132.111C435.978,131.892 436.055,131.712 436.209,131.573C436.362,131.434 436.62,131.364 436.981,131.364L437.64,131.364L437.64,127.717L437.04,127.717C436.683,127.717 436.427,127.647 436.271,127.508C436.115,127.369 436.036,127.187 436.036,126.963C436.036,126.743 436.113,126.563 436.267,126.424C436.421,126.285 436.678,126.215 437.04,126.215L437.64,126.215L437.64,125.608C437.64,124.973 437.843,124.441 438.248,124.011C438.654,123.581 439.137,123.366 439.699,123.366C440.182,123.366 440.609,123.448 440.98,123.612C441.351,123.775 441.537,124.016 441.537,124.333C441.537,124.553 441.465,124.737 441.321,124.886C441.177,125.035 441.002,125.11 440.797,125.11C440.695,125.11 440.533,125.068 440.314,124.985C440.094,124.902 439.906,124.861 439.75,124.861C439.594,124.861 439.453,124.929 439.329,125.066C439.204,125.202 439.142,125.383 439.142,125.608L439.142,126.215L439.655,126.215C440.011,126.215 440.266,126.285 440.42,126.424C440.574,126.563 440.651,126.745 440.651,126.97C440.651,127.19 440.575,127.369 440.424,127.508C440.272,127.647 440.016,127.717 439.655,127.717L439.142,127.717ZM443.815,123.366L443.815,124.948L442.02,124.948L442.02,123.366L443.815,123.366ZM444.056,126.215L444.056,131.364L444.62,131.364C444.977,131.364 445.232,131.434 445.386,131.573C445.54,131.712 445.616,131.894 445.616,132.119C445.616,132.339 445.541,132.518 445.389,132.657C445.238,132.796 444.982,132.866 444.62,132.866L441.954,132.866C441.593,132.866 441.335,132.796 441.182,132.657C441.028,132.518 440.951,132.336 440.951,132.111C440.951,131.892 441.028,131.712 441.182,131.573C441.335,131.434 441.593,131.364 441.954,131.364L442.555,131.364L442.555,127.717L442.24,127.717C441.884,127.717 441.627,127.647 441.471,127.508C441.315,127.369 441.237,127.187 441.237,126.963C441.237,126.743 441.314,126.563 441.467,126.424C441.621,126.285 441.879,126.215 442.24,126.215L444.056,126.215Z" style="fill:rgb(148,0,0);fill-rule:nonzero;"/>
                    <path d="M452.098,126.486C452.279,126.316 452.465,126.23 452.655,126.23C452.87,126.23 453.047,126.307 453.186,126.461C453.325,126.615 453.395,126.87 453.395,127.226L453.395,128.193C453.395,128.554 453.325,128.811 453.186,128.962C453.047,129.113 452.865,129.189 452.64,129.189C452.435,129.189 452.262,129.131 452.12,129.013C452.018,128.925 451.937,128.746 451.879,128.475C451.82,128.204 451.678,128.003 451.454,127.871C451.058,127.636 450.553,127.519 449.938,127.519C449.23,127.519 448.662,127.727 448.235,128.142C447.808,128.557 447.594,129.082 447.594,129.716C447.594,130.302 447.799,130.765 448.209,131.104C448.619,131.444 449.301,131.613 450.253,131.613C450.878,131.613 451.388,131.55 451.783,131.423C452.018,131.345 452.24,131.212 452.45,131.024C452.66,130.836 452.85,130.742 453.021,130.742C453.226,130.742 453.403,130.818 453.552,130.969C453.701,131.12 453.776,131.299 453.776,131.504C453.776,131.836 453.549,132.151 453.095,132.448C452.421,132.893 451.434,133.115 450.136,133.115C448.969,133.115 448.06,132.873 447.411,132.39C446.532,131.74 446.093,130.852 446.093,129.724C446.093,128.654 446.449,127.769 447.162,127.069C447.875,126.368 448.805,126.018 449.952,126.018C450.367,126.018 450.753,126.057 451.11,126.135C451.466,126.213 451.796,126.33 452.098,126.486Z" style="fill:rgb(148,0,0);fill-rule:nonzero;"/>
                    <path d="M460.111,132.866L460.111,132.514C459.735,132.715 459.32,132.865 458.866,132.965C458.412,133.065 457.999,133.115 457.628,133.115C456.823,133.115 456.168,132.901 455.665,132.474C455.162,132.047 454.911,131.574 454.911,131.057C454.911,130.427 455.232,129.842 455.874,129.303C456.516,128.763 457.404,128.493 458.536,128.493C458.991,128.493 459.515,128.542 460.111,128.64L460.111,128.281C460.111,128.056 460.015,127.873 459.822,127.732C459.629,127.59 459.262,127.519 458.72,127.519C458.275,127.519 457.699,127.607 456.991,127.783C456.727,127.846 456.522,127.878 456.376,127.878C456.176,127.878 456.006,127.806 455.867,127.662C455.728,127.518 455.658,127.334 455.658,127.109C455.658,126.982 455.682,126.872 455.731,126.779C455.78,126.687 455.848,126.612 455.936,126.556C456.024,126.5 456.207,126.433 456.486,126.355C456.857,126.252 457.235,126.17 457.621,126.109C458.007,126.048 458.356,126.018 458.668,126.018C459.601,126.018 460.325,126.219 460.84,126.622C461.355,127.025 461.613,127.575 461.613,128.274L461.613,131.364L461.869,131.364C462.23,131.364 462.488,131.434 462.642,131.573C462.795,131.712 462.872,131.894 462.872,132.119C462.872,132.339 462.795,132.518 462.642,132.657C462.488,132.796 462.23,132.866 461.869,132.866L460.111,132.866ZM460.111,130.178C459.511,130.061 458.956,130.002 458.449,130.002C457.838,130.002 457.313,130.151 456.874,130.449C456.6,130.639 456.464,130.832 456.464,131.028C456.464,131.169 456.53,131.284 456.661,131.372C456.906,131.533 457.24,131.613 457.665,131.613C458.026,131.613 458.435,131.543 458.892,131.401C459.348,131.259 459.755,131.067 460.111,130.822L460.111,130.178Z" style="fill:rgb(148,0,0);fill-rule:nonzero;"/>
                    <path d="M467.391,127.717L467.391,130.727C467.391,131.049 467.457,131.262 467.589,131.364C467.794,131.526 468.16,131.606 468.688,131.606C469.454,131.606 470.162,131.443 470.812,131.115C471.061,130.988 471.256,130.925 471.398,130.925C471.593,130.925 471.763,130.998 471.907,131.145C472.051,131.291 472.123,131.469 472.123,131.679C472.123,131.875 472.045,132.043 471.888,132.185C471.649,132.414 471.177,132.625 470.471,132.818C469.766,133.011 469.171,133.108 468.688,133.108C467.755,133.108 467.056,132.906 466.589,132.503C466.123,132.101 465.89,131.606 465.89,131.02L465.89,127.717L465.348,127.717C464.987,127.717 464.729,127.647 464.575,127.508C464.421,127.369 464.345,127.187 464.345,126.963C464.345,126.743 464.421,126.563 464.575,126.424C464.729,126.285 464.987,126.215 465.348,126.215L465.89,126.215L465.89,124.861C465.89,124.499 465.96,124.242 466.099,124.088C466.238,123.934 466.42,123.857 466.644,123.857C466.864,123.857 467.043,123.934 467.183,124.088C467.322,124.242 467.391,124.499 467.391,124.861L467.391,126.215L470.167,126.215C470.529,126.215 470.786,126.285 470.94,126.424C471.094,126.563 471.171,126.745 471.171,126.97C471.171,127.19 471.094,127.369 470.94,127.508C470.786,127.647 470.529,127.717 470.167,127.717L467.391,127.717Z" style="fill:rgb(148,0,0);fill-rule:nonzero;"/>
                    <path d="M477.301,123.366L477.301,124.956L475.514,124.956L475.514,123.366L477.301,123.366ZM477.506,126.215L477.506,131.364L479.308,131.364C479.669,131.364 479.927,131.434 480.081,131.573C480.234,131.712 480.311,131.894 480.311,132.119C480.311,132.339 480.234,132.518 480.081,132.657C479.927,132.796 479.669,132.866 479.308,132.866L474.203,132.866C473.842,132.866 473.584,132.796 473.43,132.657C473.276,132.518 473.199,132.336 473.199,132.111C473.199,131.892 473.276,131.712 473.43,131.573C473.584,131.434 473.842,131.364 474.203,131.364L476.005,131.364L476.005,127.717L474.796,127.717C474.44,127.717 474.183,127.647 474.027,127.508C473.871,127.369 473.793,127.187 473.793,126.963C473.793,126.743 473.87,126.563 474.023,126.424C474.177,126.285 474.435,126.215 474.796,126.215L477.506,126.215Z" style="fill:rgb(148,0,0);fill-rule:nonzero;"/>
                    <path d="M489.664,129.665C489.664,130.241 489.504,130.799 489.185,131.339C488.865,131.878 488.389,132.308 487.756,132.628C487.124,132.948 486.464,133.108 485.775,133.108C485.092,133.108 484.437,132.95 483.812,132.635C483.187,132.32 482.711,131.892 482.384,131.35C482.057,130.808 481.893,130.241 481.893,129.651C481.893,129.05 482.059,128.46 482.391,127.882C482.723,127.303 483.201,126.848 483.823,126.516C484.446,126.184 485.096,126.018 485.775,126.018C486.459,126.018 487.117,126.187 487.749,126.527C488.381,126.866 488.859,127.323 489.181,127.896C489.503,128.47 489.664,129.06 489.664,129.665ZM488.163,129.673C488.163,129.189 487.99,128.745 487.643,128.34C487.169,127.793 486.547,127.519 485.775,127.519C485.096,127.519 484.53,127.736 484.076,128.171C483.622,128.606 483.395,129.109 483.395,129.68C483.395,130.149 483.624,130.587 484.083,130.995C484.542,131.402 485.106,131.606 485.775,131.606C486.449,131.606 487.015,131.402 487.474,130.995C487.933,130.587 488.163,130.146 488.163,129.673Z" style="fill:rgb(148,0,0);fill-rule:nonzero;"/>
                    <path d="M493.246,126.215L493.246,126.721C493.519,126.486 493.821,126.311 494.15,126.194C494.48,126.076 494.838,126.018 495.223,126.018C496.112,126.018 496.815,126.294 497.333,126.845C497.743,127.285 497.948,127.861 497.948,128.574L497.948,131.364C498.265,131.364 498.5,131.434 498.651,131.573C498.803,131.712 498.878,131.894 498.878,132.119C498.878,132.339 498.801,132.518 498.647,132.657C498.494,132.796 498.236,132.866 497.875,132.866L496.52,132.866C496.158,132.866 495.901,132.796 495.747,132.657C495.593,132.518 495.516,132.336 495.516,132.111C495.516,131.892 495.592,131.712 495.743,131.573C495.895,131.434 496.129,131.364 496.447,131.364L496.447,128.53C496.447,128.203 496.359,127.964 496.183,127.812C495.953,127.617 495.609,127.519 495.15,127.519C494.803,127.519 494.5,127.586 494.238,127.721C493.977,127.855 493.646,128.139 493.246,128.574L493.246,131.364C493.632,131.364 493.881,131.401 493.993,131.474C494.232,131.621 494.352,131.836 494.352,132.119C494.352,132.339 494.275,132.518 494.121,132.657C493.967,132.796 493.71,132.866 493.348,132.866L491.642,132.866C491.281,132.866 491.023,132.796 490.869,132.657C490.715,132.518 490.638,132.336 490.638,132.111C490.638,131.838 490.756,131.626 490.99,131.474C491.107,131.401 491.359,131.364 491.744,131.364L491.744,127.717C491.427,127.717 491.193,127.646 491.041,127.505C490.89,127.363 490.814,127.182 490.814,126.963C490.814,126.743 490.891,126.563 491.045,126.424C491.199,126.285 491.456,126.215 491.818,126.215L493.246,126.215Z" style="fill:rgb(148,0,0);fill-rule:nonzero;"/>
                    <path d="M512.78,130.097L511.74,132.866L510.326,132.866L509.066,127.717C508.793,127.702 508.586,127.625 508.447,127.486C508.308,127.347 508.239,127.173 508.239,126.963C508.239,126.743 508.315,126.563 508.469,126.424C508.623,126.285 508.881,126.215 509.242,126.215L510.641,126.215C511.002,126.215 511.26,126.285 511.414,126.424C511.567,126.563 511.644,126.745 511.644,126.97C511.644,127.194 511.556,127.385 511.381,127.541C511.249,127.658 510.99,127.717 510.604,127.717L511.176,130.097L512.106,127.658L513.439,127.658L514.376,130.097L514.962,127.717C514.591,127.717 514.347,127.68 514.23,127.607C513.995,127.456 513.878,127.241 513.878,126.963C513.878,126.743 513.955,126.563 514.109,126.424C514.263,126.285 514.52,126.215 514.882,126.215L516.295,126.215C516.657,126.215 516.914,126.285 517.068,126.424C517.222,126.563 517.299,126.745 517.299,126.97C517.299,127.17 517.231,127.34 517.097,127.479C516.963,127.618 516.764,127.697 516.5,127.717L515.27,132.866L513.878,132.866L512.78,130.097Z" style="fill:rgb(148,0,0);fill-rule:nonzero;"/>
                    <path d="M522.308,123.366L522.308,124.956L520.521,124.956L520.521,123.366L522.308,123.366ZM522.513,126.215L522.513,131.364L524.315,131.364C524.677,131.364 524.934,131.434 525.088,131.573C525.242,131.712 525.319,131.894 525.319,132.119C525.319,132.339 525.242,132.518 525.088,132.657C524.934,132.796 524.677,132.866 524.315,132.866L519.21,132.866C518.849,132.866 518.591,132.796 518.438,132.657C518.284,132.518 518.207,132.336 518.207,132.111C518.207,131.892 518.284,131.712 518.438,131.573C518.591,131.434 518.849,131.364 519.21,131.364L521.012,131.364L521.012,127.717L519.803,127.717C519.447,127.717 519.191,127.647 519.034,127.508C518.878,127.369 518.8,127.187 518.8,126.963C518.8,126.743 518.877,126.563 519.031,126.424C519.185,126.285 519.442,126.215 519.803,126.215L522.513,126.215Z" style="fill:rgb(148,0,0);fill-rule:nonzero;"/>
                    <path d="M530.402,127.717L530.402,130.727C530.402,131.049 530.468,131.262 530.599,131.364C530.804,131.526 531.171,131.606 531.698,131.606C532.465,131.606 533.173,131.443 533.822,131.115C534.071,130.988 534.266,130.925 534.408,130.925C534.603,130.925 534.773,130.998 534.917,131.145C535.061,131.291 535.133,131.469 535.133,131.679C535.133,131.875 535.055,132.043 534.899,132.185C534.659,132.414 534.187,132.625 533.481,132.818C532.776,133.011 532.181,133.108 531.698,133.108C530.765,133.108 530.066,132.906 529.6,132.503C529.133,132.101 528.9,131.606 528.9,131.02L528.9,127.717L528.358,127.717C527.997,127.717 527.739,127.647 527.585,127.508C527.432,127.369 527.355,127.187 527.355,126.963C527.355,126.743 527.432,126.563 527.585,126.424C527.739,126.285 527.997,126.215 528.358,126.215L528.9,126.215L528.9,124.861C528.9,124.499 528.97,124.242 529.109,124.088C529.248,123.934 529.43,123.857 529.655,123.857C529.874,123.857 530.054,123.934 530.193,124.088C530.332,124.242 530.402,124.499 530.402,124.861L530.402,126.215L533.178,126.215C533.539,126.215 533.796,126.285 533.95,126.424C534.104,126.563 534.181,126.745 534.181,126.97C534.181,127.19 534.104,127.369 533.95,127.508C533.796,127.647 533.539,127.717 533.178,127.717L530.402,127.717Z" style="fill:rgb(148,0,0);fill-rule:nonzero;"/>
                    <path d="M538.224,123.366L538.224,126.567C538.536,126.382 538.853,126.244 539.172,126.153C539.492,126.063 539.816,126.018 540.143,126.018C540.66,126.018 541.122,126.106 541.527,126.281C541.932,126.457 542.268,126.734 542.534,127.113C542.8,127.491 542.933,127.968 542.933,128.545L542.933,131.364C543.314,131.364 543.563,131.401 543.68,131.474C543.915,131.626 544.032,131.84 544.032,132.119C544.032,132.339 543.956,132.518 543.805,132.657C543.654,132.796 543.397,132.866 543.036,132.866L541.322,132.866C540.966,132.866 540.71,132.796 540.557,132.657C540.403,132.518 540.326,132.336 540.326,132.111C540.326,131.838 540.443,131.626 540.678,131.474C540.8,131.396 541.049,131.36 541.425,131.364L541.425,128.647C541.425,128.261 541.337,127.99 541.161,127.834C540.931,127.624 540.592,127.519 540.143,127.519C539.811,127.519 539.517,127.584 539.26,127.713C539.004,127.843 538.658,128.122 538.224,128.552L538.224,131.364C538.61,131.364 538.859,131.401 538.971,131.474C539.21,131.626 539.33,131.84 539.33,132.119C539.33,132.339 539.253,132.518 539.099,132.657C538.945,132.796 538.688,132.866 538.326,132.866L536.62,132.866C536.259,132.866 536.001,132.796 535.847,132.657C535.693,132.518 535.616,132.336 535.616,132.111C535.616,131.838 535.736,131.626 535.975,131.474C536.093,131.396 536.342,131.36 536.722,131.364L536.722,124.868L536.466,124.868C536.105,124.868 535.847,124.798 535.693,124.659C535.54,124.52 535.463,124.338 535.463,124.113C535.463,123.894 535.54,123.714 535.693,123.575C535.847,123.436 536.105,123.366 536.466,123.366L538.224,123.366Z" style="fill:rgb(148,0,0);fill-rule:nonzero;"/>
                    <path d="M559.611,130.449L555.963,130.449L555.597,131.364L555.963,131.364C556.324,131.364 556.582,131.434 556.736,131.573C556.89,131.712 556.967,131.894 556.967,132.119C556.967,132.339 556.89,132.518 556.736,132.657C556.582,132.796 556.324,132.866 555.963,132.866L553.942,132.866C553.58,132.866 553.323,132.796 553.169,132.657C553.015,132.518 552.938,132.336 552.938,132.111C552.938,131.887 553.019,131.704 553.18,131.562C553.341,131.421 553.607,131.355 553.978,131.364L556.337,125.49L555.355,125.49C554.994,125.49 554.736,125.421 554.583,125.282C554.429,125.142 554.352,124.961 554.352,124.736C554.352,124.511 554.429,124.33 554.583,124.19C554.736,124.051 554.994,123.982 555.355,123.982L558.6,123.989L561.588,131.364C561.94,131.364 562.172,131.403 562.284,131.482C562.509,131.643 562.621,131.855 562.621,132.119C562.621,132.339 562.545,132.518 562.394,132.657C562.242,132.796 561.986,132.866 561.625,132.866L559.603,132.866C559.242,132.866 558.984,132.796 558.831,132.657C558.677,132.518 558.6,132.336 558.6,132.111C558.6,131.892 558.677,131.712 558.831,131.573C558.984,131.434 559.242,131.364 559.603,131.364L559.97,131.364L559.611,130.449ZM558.988,128.947L557.78,125.974L556.564,128.947L558.988,128.947Z" style="fill-rule:nonzero;"/>
                    <path d="M567.528,125.49L567.528,131.364L569.044,131.364C569.406,131.364 569.663,131.434 569.817,131.573C569.971,131.712 570.048,131.894 570.048,132.119C570.048,132.339 569.971,132.518 569.817,132.657C569.663,132.796 569.406,132.866 569.044,132.866L564.511,132.866C564.149,132.866 563.892,132.796 563.738,132.657C563.584,132.518 563.507,132.336 563.507,132.111C563.507,131.892 563.584,131.712 563.738,131.573C563.892,131.434 564.149,131.364 564.511,131.364L566.027,131.364L566.027,125.49L564.511,125.49C564.149,125.49 563.892,125.421 563.738,125.282C563.584,125.142 563.507,124.961 563.507,124.736C563.507,124.511 563.584,124.33 563.738,124.19C563.892,124.051 564.149,123.982 564.511,123.982L569.044,123.989C569.406,123.989 569.663,124.057 569.817,124.194C569.971,124.331 570.048,124.511 570.048,124.736C570.048,124.961 569.971,125.142 569.817,125.282C569.663,125.421 569.406,125.49 569.044,125.49L567.528,125.49Z" style="fill-rule:nonzero;"/>
                </g>
            </g>
            <g transform="matrix(-0.100709,0,0,0.555441,158.382,-147.687)">
                <path d="M255.228,451.862L320.565,488.074C323.845,489.91 326.027,491.55 327.109,492.994C328.192,494.437 328.733,496.274 328.733,498.504C328.733,501.325 327.716,503.768 325.682,505.835C323.649,507.901 321.287,508.934 318.597,508.934C316.826,508.934 314.169,507.95 310.627,505.982L213.309,451.862L310.627,397.742C314.169,395.84 316.793,394.888 318.499,394.888C321.254,394.888 323.649,395.905 325.682,397.939C327.716,399.972 328.733,402.4 328.733,405.22C328.733,407.451 328.192,409.288 327.109,410.731C326.027,412.174 323.845,413.814 320.565,415.651L255.228,451.862Z" style="fill:rgb(255,224,224);fill-rule:nonzero;"/>
            </g>
        </g>
    </g>
    <defs>
        <radialGradient id="_Radial2" cx="0" cy="0" r="1" gradientUnits="userSpaceOnUse" gradientTransform="matrix(475.802,32.3875,-32.3875,475.802,140.829,213.444)"><stop offset="0" style="stop-color:rgb(235,217,217);stop-opacity:1"/><stop offset="0.56" style="stop-color:rgb(239,209,209);stop-opacity:1"/><stop offset="1" style="stop-color:rgb(255,179,179);stop-opacity:1"/></radialGradient>
        <radialGradient id="_Radial3" cx="0" cy="0" r="1" gradientUnits="userSpaceOnUse" gradientTransform="matrix(47.6463,-21.2856,21.2856,47.6463,21.8989,86.1)"><stop offset="0" style="stop-color:rgb(28,0,0);stop-opacity:1"/><stop offset="0.52" style="stop-color:rgb(56,0,0);stop-opacity:1"/><stop offset="1" style="stop-color:rgb(148,0,0);stop-opacity:1"/></radialGradient>
        <radialGradient id="_Radial4" cx="0" cy="0" r="1" gradientUnits="userSpaceOnUse" gradientTransform="matrix(47.6463,-21.2856,21.2856,47.6463,21.8989,86.1)"><stop offset="0" style="stop-color:rgb(28,0,0);stop-opacity:1"/><stop offset="0.52" style="stop-color:rgb(56,0,0);stop-opacity:1"/><stop offset="1" style="stop-color:rgb(148,0,0);stop-opacity:1"/></radialGradient>
        <radialGradient id="_Radial5" cx="0" cy="0" r="1" gradientUnits="userSpaceOnUse" gradientTransform="matrix(47.6463,-21.2856,21.2856,47.6463,21.8989,86.1)"><stop offset="0" style="stop-color:rgb(28,0,0);stop-opacity:1"/><stop offset="0.52" style="stop-color:rgb(56,0,0);stop-opacity:1"/><stop offset="1" style="stop-color:rgb(148,0,0);stop-opacity:1"/></radialGradient>
        <radialGradient id="_Radial6" cx="0" cy="0" r="1" gradientUnits="userSpaceOnUse" gradientTransform="matrix(47.6463,-21.2856,21.2856,47.6463,21.8989,86.1)"><stop offset="0" style="stop-color:rgb(28,0,0);stop-opacity:1"/><stop offset="0.52" style="stop-color:rgb(56,0,0);stop-opacity:1"/><stop offset="1" style="stop-color:rgb(148,0,0);stop-opacity:1"/></radialGradient>
    </defs>
</svg>
